<?xml version="1.0" encoding="UTF-8"?>
<!DOCTYPE svg PUBLIC "-//W3C//DTD SVG 1.1//EN" "http://www.w3.org/Graphics/SVG/1.1/DTD/svg11.dtd">
<svg xmlns="http://www.w3.org/2000/svg" version="1.1" width="570px" height="562px" style="shape-rendering:geometricPrecision; text-rendering:geometricPrecision; image-rendering:optimizeQuality; fill-rule:evenodd; clip-rule:evenodd" xmlns:xlink="http://www.w3.org/1999/xlink">
<g><path style="opacity:1" fill="#fefefe" d="M -0.5,-0.5 C 189.5,-0.5 379.5,-0.5 569.5,-0.5C 569.5,186.833 569.5,374.167 569.5,561.5C 379.5,561.5 189.5,561.5 -0.5,561.5C -0.5,374.167 -0.5,186.833 -0.5,-0.5 Z"/></g>
<g><path style="opacity:1" fill="#482b17" d="M 332.5,76.5 C 350.435,76.317 367.101,80.817 382.5,90C 411.091,111.035 416.925,137.202 400,168.5C 393.322,176.743 385.155,182.91 375.5,187C 373.291,188.873 371.458,191.04 370,193.5C 367.749,204.088 365.749,214.754 364,225.5C 362.999,232.505 358.999,235.838 352,235.5C 338.021,232.214 324.188,228.38 310.5,224C 293.91,221.621 277.243,220.954 260.5,222C 244.186,224.995 228.52,229.995 213.5,237C 207.984,237.829 205.151,235.329 205,229.5C 202.643,215.412 199.976,201.412 197,187.5C 195.5,185.333 193.667,183.5 191.5,182C 170.918,174.345 160.585,159.512 160.5,137.5C 161.354,107.135 176.687,88.6353 206.5,82C 221.656,80.3835 235.656,83.7168 248.5,92C 258.344,98.5152 268.177,105.015 278,111.5C 285.521,100.98 294.687,92.1462 305.5,85C 314.072,80.3574 323.072,77.5241 332.5,76.5 Z"/></g>
<g><path style="opacity:1" fill="#fbde01" d="M 237.5,212.5 C 229.371,202.65 226.537,191.317 229,178.5C 230.229,174.379 231.729,170.379 233.5,166.5C 234.96,164.537 236.627,162.704 238.5,161C 236.811,161.134 235.144,161.634 233.5,162.5C 226.189,163.469 218.856,163.636 211.5,163C 197.71,159.612 190.376,150.779 189.5,136.5C 192.051,122.114 200.385,112.947 214.5,109C 221.323,108.066 227.99,108.566 234.5,110.5C 243.267,115.55 252.267,120.05 261.5,124C 278.961,128.734 294.961,125.734 309.5,115C 305.853,114.226 302.186,113.559 298.5,113C 305.927,105.621 314.594,100.288 324.5,97C 343.361,93.2567 359.194,98.4233 372,112.5C 378.235,122.263 380.235,132.929 378,144.5C 367.716,173.545 348.883,180.711 321.5,166C 311.905,159.035 301.572,153.368 290.5,149C 269.296,144.023 254.13,151.19 245,170.5C 253.269,163.281 262.435,157.447 272.5,153C 278.661,150.76 284.661,151.093 290.5,154C 310.833,166.668 330.333,180.501 349,195.5C 349.021,200.582 347.855,205.416 345.5,210C 328.192,205.562 310.525,203.062 292.5,202.5C 273.593,202.812 255.259,206.145 237.5,212.5 Z"/></g>
<g><path style="opacity:1" fill="#faf9f7" d="M 234.5,110.5 C 227.99,108.566 221.323,108.066 214.5,109C 200.385,112.947 192.051,122.114 189.5,136.5C 190.376,150.779 197.71,159.612 211.5,163C 218.856,163.636 226.189,163.469 233.5,162.5C 220.492,171.583 206.826,172.75 192.5,166C 177.646,151.651 175.813,135.818 187,118.5C 196.352,106.493 208.519,101.993 223.5,105C 227.773,105.81 231.44,107.643 234.5,110.5 Z"/></g>
<g><path style="opacity:1" fill="#fcfbf9" d="M 233.5,166.5 C 231.729,170.379 230.229,174.379 229,178.5C 226.537,191.317 229.371,202.65 237.5,212.5C 230.008,216.076 222.341,219.409 214.5,222.5C 213.579,214.727 212.079,207.06 210,199.5C 209.333,195.833 209.333,192.167 210,188.5C 216.746,179.918 224.58,172.584 233.5,166.5 Z"/></g>
<g><path style="opacity:1" fill="#492c19" d="M 310.5,238.5 C 312.833,238.5 315.167,238.5 317.5,238.5C 316.677,243.339 318.677,245.673 323.5,245.5C 323.78,256.368 318.78,259.868 308.5,256C 302.693,249.354 303.36,243.521 310.5,238.5 Z"/></g>
<g><path style="opacity:1" fill="#4e321f" d="M 251.5,243.5 C 259.441,242.464 263.775,245.797 264.5,253.5C 258.167,253.5 251.833,253.5 245.5,253.5C 245.971,249.221 247.971,245.888 251.5,243.5 Z"/></g>
<g><path style="opacity:1" fill="#482b18" d="M 273.5,273.5 C 293.438,271.975 310.771,277.809 325.5,291C 331.864,297.699 338.531,304.032 345.5,310C 351.351,314.84 358.017,316.84 365.5,316C 371.624,313.905 374.457,309.738 374,303.5C 371.893,299.488 370.393,299.821 369.5,304.5C 365.631,306.425 363.298,305.258 362.5,301C 363.943,297.857 366.443,296.357 370,296.5C 380.579,298.317 383.913,304.317 380,314.5C 376.732,320.763 371.566,324.263 364.5,325C 353.336,326.894 342.836,325.06 333,319.5C 331.437,320.102 331.604,320.935 333.5,322C 315.23,318.35 298.396,311.183 283,300.5C 267.558,310.539 250.892,317.872 233,322.5C 232.383,321.551 232.549,320.718 233.5,320C 233,319.833 232.5,319.667 232,319.5C 219.594,325.793 206.76,326.96 193.5,323C 184.539,317.453 182.039,309.953 186,300.5C 189.396,296.797 193.563,295.631 198.5,297C 202.795,298.845 203.462,301.512 200.5,305C 196.585,306.064 194.418,304.564 194,300.5C 189.899,303.881 189.565,307.548 193,311.5C 196.883,316.009 201.716,317.509 207.5,316C 213.449,314.027 218.783,311.027 223.5,307C 231.566,298.264 240.233,290.264 249.5,283C 257.033,278.391 265.033,275.225 273.5,273.5 Z"/></g>
<g><path style="opacity:1" fill="#4b2e1c" d="M 477.5,385.5 C 481.303,387.434 485.303,388.768 489.5,389.5C 488.943,400.391 487.11,411.058 484,421.5C 480.812,423.387 477.312,424.72 473.5,425.5C 472.914,425.291 472.414,424.957 472,424.5C 470.454,417.968 468.454,411.635 466,405.5C 463.611,411.778 462.111,418.278 461.5,425C 458.261,424.554 455.261,423.221 452.5,421C 452.126,411.198 453.96,401.698 458,392.5C 462.255,390.478 466.755,389.478 471.5,389.5C 472.34,396.873 473.506,404.206 475,411.5C 476.822,402.928 477.655,394.261 477.5,385.5 Z"/></g>
<g><path style="opacity:1" fill="#492c19" d="M 317.5,387.5 C 320.833,387.5 324.167,387.5 327.5,387.5C 326.725,393.153 326.058,398.82 325.5,404.5C 320.852,403.534 316.186,403.034 311.5,403C 310.133,405.301 309.466,407.801 309.5,410.5C 313.027,410.496 316.527,410.163 320,409.5C 321.167,409.833 322.333,410.167 323.5,410.5C 321.909,413.256 319.576,415.089 316.5,416C 312.886,416.945 309.219,417.612 305.5,418C 303.623,420.251 302.123,422.751 301,425.5C 299.951,426.517 298.784,426.684 297.5,426C 295,424.182 293.334,421.848 292.5,419C 293.97,412.935 295.97,407.101 298.5,401.5C 297.311,400.571 295.978,400.238 294.5,400.5C 294.927,396.144 296.594,392.311 299.5,389C 305.681,388.828 311.681,388.328 317.5,387.5 Z"/></g>
<g><path style="opacity:1" fill="#492d1a" d="M 102.5,388.5 C 106.167,388.5 109.833,388.5 113.5,388.5C 114.229,393.13 114.563,397.797 114.5,402.5C 108.183,401.52 101.849,401.02 95.5,401C 99.1836,404.23 103.517,405.897 108.5,406C 114.535,407.999 116.035,411.832 113,417.5C 105.729,422.759 97.5626,425.759 88.5,426.5C 84.6262,423.422 82.2928,419.422 81.5,414.5C 84.7994,415.022 88.1327,415.355 91.5,415.5C 94.9058,415.704 98.0724,415.038 101,413.5C 101.167,413.167 101.333,412.833 101.5,412.5C 95.9522,411.692 90.6189,410.192 85.5,408C 82.3077,402.499 83.3077,397.833 88.5,394C 93.0171,391.445 97.6838,389.612 102.5,388.5 Z"/></g>
<g><path style="opacity:1" fill="#4a2d1b" d="M 146.5,388.5 C 147.167,392.833 147.833,397.167 148.5,401.5C 148.686,407.585 149.186,413.585 150,419.5C 146.172,422.415 142.172,425.081 138,427.5C 137.502,424.183 137.335,420.85 137.5,417.5C 134.15,417.335 130.817,417.502 127.5,418C 126.314,420.748 125.314,423.581 124.5,426.5C 121.391,424.525 118.557,422.192 116,419.5C 119.44,410.347 122.607,401.014 125.5,391.5C 132.539,390.718 139.539,389.718 146.5,388.5 Z"/></g>
<g><path style="opacity:1" fill="#8c7b6e" d="M 146.5,388.5 C 146.56,387.957 146.893,387.624 147.5,387.5C 148.493,392.12 148.827,396.786 148.5,401.5C 147.833,397.167 147.167,392.833 146.5,388.5 Z"/></g>
<g><path style="opacity:1" fill="#4a2d1a" d="M 167.5,388.5 C 172.844,388.334 178.177,388.501 183.5,389C 189.855,392.591 192.355,397.757 191,404.5C 189.279,407.297 187.113,409.631 184.5,411.5C 185.833,412.5 187.167,413.5 188.5,414.5C 189.614,415.723 189.781,417.056 189,418.5C 184.578,423.293 179.078,425.793 172.5,426C 165.477,427.646 159.311,426.146 154,421.5C 153.333,420.167 153.333,418.833 154,417.5C 156.694,413.446 158.861,409.112 160.5,404.5C 158.525,403.422 156.692,403.755 155,405.5C 154.491,400.048 155.991,395.214 159.5,391C 162.379,390.454 165.046,389.621 167.5,388.5 Z"/></g>
<g><path style="opacity:1" fill="#492c1a" d="M 247.5,387.5 C 257.575,387.698 264.241,392.532 267.5,402C 265.803,409.359 261.136,413.692 253.5,415C 256.923,417.308 260.589,419.142 264.5,420.5C 261.591,424.789 257.591,426.622 252.5,426C 249.289,422.958 246.289,419.791 243.5,416.5C 241.579,419.596 240.246,422.93 239.5,426.5C 232.651,424.803 229.817,420.469 231,413.5C 234.665,407.2 235.165,400.7 232.5,394C 236.932,390.362 241.932,388.195 247.5,387.5 Z"/></g>
<g><path style="opacity:1" fill="#4a2d1a" d="M 382.5,388.5 C 386.833,388.5 391.167,388.5 395.5,388.5C 395.54,393.193 395.873,397.859 396.5,402.5C 391.51,401.835 386.51,401.168 381.5,400.5C 376.467,401.031 376.467,402.198 381.5,404C 384.424,404.988 387.424,405.654 390.5,406C 395.746,407.237 397.58,410.404 396,415.5C 393.313,419.194 389.813,421.694 385.5,423C 380.391,424.422 375.224,425.589 370,426.5C 366.008,423.518 363.841,419.518 363.5,414.5C 369.841,415.779 376.174,415.779 382.5,414.5C 382.5,413.5 382.5,412.5 382.5,411.5C 376.235,412.132 370.735,410.465 366,406.5C 365.333,403.833 365.333,401.167 366,398.5C 370.427,393.212 375.927,389.879 382.5,388.5 Z"/></g>
<g><path style="opacity:1" fill="#4b2e1b" d="M 403.5,388.5 C 407.798,389.2 412.131,389.533 416.5,389.5C 413.193,402 410.526,414.667 408.5,427.5C 405.404,425.869 402.57,423.869 400,421.5C 399.847,410.361 401.014,399.361 403.5,388.5 Z"/></g>
<g><path style="opacity:1" fill="#4a2d1b" d="M 442.5,389.5 C 446.382,390.211 448.882,392.544 450,396.5C 451.879,412.118 445.379,422.451 430.5,427.5C 415.348,421.653 412.181,411.653 421,397.5C 422.873,395.291 425.04,393.458 427.5,392C 430.161,392.408 432.827,393.241 435.5,394.5C 438.687,393.973 441.02,392.307 442.5,389.5 Z"/></g>
<g><path style="opacity:1" fill="#4a2d1a" d="M 220.5,389.5 C 223.428,390.591 225.594,392.591 227,395.5C 229.496,412.392 222.662,422.892 206.5,427C 196.851,423.843 192.684,417.343 194,407.5C 195.55,400.961 199.05,395.794 204.5,392C 207.161,392.408 209.827,393.241 212.5,394.5C 215.716,393.6 218.382,391.933 220.5,389.5 Z"/></g>
<g><path style="opacity:1" fill="#4b2e1c" d="M 342.5,389.5 C 344.288,389.215 345.955,389.548 347.5,390.5C 343.221,398.335 340.555,406.669 339.5,415.5C 341.937,415.244 344.271,414.577 346.5,413.5C 346.97,407.091 348.303,400.925 350.5,395C 354.462,395.105 358.462,395.439 362.5,396C 362.833,396.333 363.167,396.667 363.5,397C 359.847,405.783 358.181,414.95 358.5,424.5C 353.72,425.359 350.22,423.692 348,419.5C 341.887,423.867 335.053,425.534 327.5,424.5C 327.114,413.819 328.78,403.485 332.5,393.5C 336.013,392.336 339.346,391.002 342.5,389.5 Z"/></g>
<g><path style="opacity:1" fill="#f3f1f0" d="M 171.5,401.5 C 175.514,401.334 179.514,401.501 183.5,402C 180.438,407.366 175.771,409.866 169.5,409.5C 169.56,406.659 170.226,403.993 171.5,401.5 Z"/></g>
<g><path style="opacity:1" fill="#eeebe9" d="M 214.5,400.5 C 217.735,407.044 216.402,412.878 210.5,418C 209.552,418.483 208.552,418.649 207.5,418.5C 207.616,411.607 209.949,405.607 214.5,400.5 Z"/></g>
<g><path style="opacity:1" fill="#eeebea" d="M 437.5,400.5 C 438.765,401.514 439.431,403.014 439.5,405C 439.344,408.817 438.178,412.317 436,415.5C 434.736,417.607 432.903,418.607 430.5,418.5C 430.604,411.627 432.937,405.627 437.5,400.5 Z"/></g>
<g><path style="opacity:1" fill="#e4e0dd" d="M 135.5,399.5 C 136.268,400.263 136.768,401.263 137,402.5C 137.499,406.152 137.665,409.818 137.5,413.5C 134.833,413.5 132.167,413.5 129.5,413.5C 130.533,408.396 132.533,403.729 135.5,399.5 Z"/></g>
<g><path style="opacity:1" fill="#e7e2e0" d="M 248.5,401.5 C 251.545,401.508 254.545,401.841 257.5,402.5C 255.512,408.993 251.179,411.66 244.5,410.5C 246.122,407.592 247.456,404.592 248.5,401.5 Z"/></g>
<g><path style="opacity:1" fill="#492c19" d="M 270.5,407.5 C 276.5,407.5 282.5,407.5 288.5,407.5C 288.421,408.93 288.754,410.264 289.5,411.5C 289,411.833 288.5,412.167 288,412.5C 282.519,413.316 277.019,413.983 271.5,414.5C 271.607,412.097 270.607,410.264 268.5,409C 269.416,408.722 270.082,408.222 270.5,407.5 Z"/></g>
<g><path style="opacity:1" fill="#f0edec" d="M 169.5,414.5 C 172.829,414.264 175.829,415.097 178.5,417C 174.894,419.568 170.894,420.568 166.5,420C 167.639,418.22 168.639,416.386 169.5,414.5 Z"/></g>
<g><path style="opacity:1" fill="#462916" d="M 207.5,464.5 C 208.5,464.5 209.5,464.5 210.5,464.5C 210.666,471.175 210.5,477.842 210,484.5C 209.167,485.333 208.333,486.167 207.5,487C 201.843,487.499 196.176,487.666 190.5,487.5C 190.5,486.167 190.5,484.833 190.5,483.5C 196.093,483.807 201.593,483.473 207,482.5C 207.499,476.509 207.666,470.509 207.5,464.5 Z"/></g>
<g><path style="opacity:1" fill="#513523" d="M 227.5,464.5 C 242.642,460.815 248.808,466.481 246,481.5C 245.226,483.939 243.726,485.773 241.5,487C 226.563,490.395 220.396,484.562 223,469.5C 224.025,467.313 225.525,465.646 227.5,464.5 Z"/></g>
<g><path style="opacity:1" fill="#492c19" d="M 260.5,464.5 C 266.167,464.5 271.833,464.5 277.5,464.5C 277.5,465.833 277.5,467.167 277.5,468.5C 272.156,468.334 266.823,468.501 261.5,469C 260.14,470.938 260.473,472.604 262.5,474C 267.553,474.217 272.553,474.717 277.5,475.5C 280.122,478.965 280.122,482.465 277.5,486C 270.95,487.42 264.284,487.92 257.5,487.5C 257.5,486.167 257.5,484.833 257.5,483.5C 263.176,483.666 268.843,483.499 274.5,483C 275.833,481.333 275.833,479.667 274.5,478C 269.833,477.667 265.167,477.333 260.5,477C 256.547,472.835 256.547,468.669 260.5,464.5 Z"/></g>
<g><path style="opacity:1" fill="#492c1a" d="M 293.5,464.5 C 298.833,464.5 304.167,464.5 309.5,464.5C 309.5,465.833 309.5,467.167 309.5,468.5C 304.489,468.334 299.489,468.501 294.5,469C 293.167,470.667 293.167,472.333 294.5,474C 299.946,474.101 305.279,474.768 310.5,476C 312.053,479.565 311.72,482.899 309.5,486C 302.95,487.42 296.284,487.92 289.5,487.5C 289.5,486.167 289.5,484.833 289.5,483.5C 295.509,483.666 301.509,483.499 307.5,483C 308.86,481.062 308.527,479.396 306.5,478C 301.833,477.667 297.167,477.333 292.5,477C 288.286,472.361 288.619,468.195 293.5,464.5 Z"/></g>
<g><path style="opacity:1" fill="#4d311e" d="M 327.5,468.5 C 326.836,470.81 326.503,473.31 326.5,476C 326.525,478.929 327.191,481.429 328.5,483.5C 333.5,483.5 338.5,483.5 343.5,483.5C 343.5,484.833 343.5,486.167 343.5,487.5C 337.491,487.666 331.491,487.499 325.5,487C 324.667,486.167 323.833,485.333 323,484.5C 322.19,477.918 322.357,471.418 323.5,465C 330.158,464.5 336.825,464.334 343.5,464.5C 343.5,465.833 343.5,467.167 343.5,468.5C 338.167,468.5 332.833,468.5 327.5,468.5 Z"/></g>
<g><path style="opacity:1" fill="#462916" d="M 354.5,464.5 C 355.5,464.5 356.5,464.5 357.5,464.5C 357.5,470.833 357.5,477.167 357.5,483.5C 363.167,483.5 368.833,483.5 374.5,483.5C 374.5,484.833 374.5,486.167 374.5,487.5C 367.833,487.5 361.167,487.5 354.5,487.5C 354.5,479.833 354.5,472.167 354.5,464.5 Z"/></g>
<g><path style="opacity:1" fill="#fcfcfb" d="M 228.5,468.5 C 240.487,465.321 244.987,469.655 242,481.5C 227.761,487.093 223.261,482.76 228.5,468.5 Z"/></g>
<g><path style="opacity:1" fill="#c9c0bb" d="M 327.5,468.5 C 327.5,470.167 327.5,471.833 327.5,473.5C 332.363,473.181 337.03,473.514 341.5,474.5C 337.167,474.5 332.833,474.5 328.5,474.5C 328.5,475.5 328.5,476.5 328.5,477.5C 332.833,477.5 337.167,477.5 341.5,477.5C 337.03,478.486 332.363,478.819 327.5,478.5C 327.366,480.292 327.699,481.958 328.5,483.5C 327.191,481.429 326.525,478.929 326.5,476C 326.503,473.31 326.836,470.81 327.5,468.5 Z"/></g>
<g><path style="opacity:1" fill="#482c19" d="M 341.5,474.5 C 341.5,475.5 341.5,476.5 341.5,477.5C 337.167,477.5 332.833,477.5 328.5,477.5C 328.5,476.5 328.5,475.5 328.5,474.5C 332.833,474.5 337.167,474.5 341.5,474.5 Z"/></g>
</svg>
